<svg width="24" height="25" viewBox="0 0 24 25" fill="none" xmlns="http://www.w3.org/2000/svg">
<path d="M23.2872 5.23676L12.4872 0.436758C12.3336 0.368514 12.1675 0.333252 11.9994 0.333252C11.8314 0.333252 11.6652 0.368514 11.5116 0.436758L0.7116 5.23676C0.6876 5.24756 0.6708 5.26556 0.6468 5.27876C0.6132 5.29556 0.5772 5.30636 0.546 5.32676C0.5196 5.34476 0.4992 5.36756 0.474 5.38676C0.386284 5.45195 0.309347 5.5305 0.246 5.61956C0.222 5.65316 0.1968 5.68316 0.1752 5.71676C0.139484 5.78018 0.108984 5.84639 0.0839999 5.91476C0.0731999 5.94716 0.0564 5.97716 0.0468 6.00956C0.0166626 6.11495 0.000919856 6.22394 0 6.33356V18.3336C0 18.8088 0.2784 19.2372 0.7128 19.4304L11.5128 24.2304C11.6688 24.3 11.8344 24.3336 12 24.3336C12.1671 24.3293 12.3314 24.29 12.4824 24.2184L12.4872 24.2304L23.2872 19.4304C23.4995 19.3362 23.6798 19.1825 23.8064 18.9877C23.9329 18.793 24.0002 18.5658 24 18.3336V6.33356C24.0002 6.10134 23.9329 5.87408 23.8064 5.67937C23.6798 5.48466 23.4995 5.3309 23.2872 5.23676V5.23676ZM12 2.84756L19.8456 6.33356L12 9.81956L10.4304 9.12236L4.1556 6.33356L12 2.84756ZM13.2 21.2868V11.9136L21.6 8.18036V17.5548L13.2 21.2868Z" fill="#F9ECE1"/>
</svg>
