<svg width="14" height="14" viewBox="0 0 14 14" fill="none" xmlns="http://www.w3.org/2000/svg">
<path d="M13 0.333374H1.00004C0.82323 0.333374 0.65366 0.403612 0.528636 0.528636C0.403612 0.65366 0.333374 0.82323 0.333374 1.00004V13C0.333374 13.1769 0.403612 13.3464 0.528636 13.4714C0.65366 13.5965 0.82323 13.6667 1.00004 13.6667H13C13.1769 13.6667 13.3464 13.5965 13.4714 13.4714C13.5965 13.3464 13.6667 13.1769 13.6667 13V1.00004C13.6667 0.82323 13.5965 0.65366 13.4714 0.528636C13.3464 0.403612 13.1769 0.333374 13 0.333374V0.333374ZM4.33337 12.3334H1.66671V1.66671H4.33337V12.3334ZM12.3334 12.3334H5.66671V7.66671H12.3334V12.3334ZM12.3334 6.33337H5.66671V1.66671H12.3334V6.33337Z" fill="#F9ECE1"/>
</svg>
