<svg width="26" height="26" viewBox="0 0 26 26" fill="none" xmlns="http://www.w3.org/2000/svg">
<path d="M6.33333 25H22.3333C23.0406 25 23.7189 24.719 24.219 24.219C24.719 23.7189 25 23.0406 25 22.3333V17C25 16.2928 24.719 15.6145 24.219 15.1144C23.7189 14.6143 23.0406 14.3333 22.3333 14.3333H19.2093M11.6667 6.79067L13.876 4.58133C14.3761 4.08141 15.0542 3.80057 15.7613 3.80057C16.4684 3.80057 17.1466 4.08141 17.6467 4.58133L21.4187 8.35333C21.9186 8.85341 22.1994 9.53156 22.1994 10.2387C22.1994 10.9458 21.9186 11.6239 21.4187 12.124L10.104 23.4373M6.33333 19.6667H6.34667M6.33333 25C4.91885 25 3.56229 24.4381 2.5621 23.4379C1.5619 22.4377 1 21.0812 1 19.6667V3.66667C1 2.95942 1.28095 2.28115 1.78105 1.78105C2.28115 1.28095 2.95942 1 3.66667 1H9C9.70724 1 10.3855 1.28095 10.8856 1.78105C11.3857 2.28115 11.6667 2.95942 11.6667 3.66667V19.6667C11.6667 21.0812 11.1048 22.4377 10.1046 23.4379C9.10438 24.4381 7.74782 25 6.33333 25V25Z" stroke="#F9ECE1" stroke-width="1.33333" stroke-linecap="round" stroke-linejoin="round"/>
</svg>
