<svg width="160" height="200" viewBox="0 0 160 200" fill="none" xmlns="http://www.w3.org/2000/svg">
<g clip-path="url(#clip0_6_314)">
<path d="M20.0934 136.195C23.585 136.177 27.014 137.119 30.0041 138.916V147.075L24.8455 142.119C23.3461 140.675 21.3894 139.953 18.9753 139.953C14.4705 139.953 11.0916 142.318 8.83835 147.047C7.06966 150.686 6.18447 154.948 6.18278 159.833C6.18278 164.624 7.09253 168.913 8.91204 172.7C11.2838 177.589 14.6382 180.032 18.9753 180.031C21.3877 180.031 23.3445 179.308 24.8455 177.862L30.0041 172.905V180.76C27.0529 182.575 23.3792 183.482 18.9829 183.482C13.0314 183.482 8.25895 180.907 4.66567 175.756C1.55522 171.232 0 165.927 0 159.841C0 153.444 1.66196 148.038 4.98586 143.624C8.735 138.671 13.7708 136.195 20.0934 136.195Z" fill="#5E3653"/>
<path d="M44.1409 171.96C45.7597 173.311 46.5678 173.987 48.1891 175.318C42.5984 175.931 39.7904 176.306 34.2124 177.185C35.8261 175.343 36.6316 174.441 38.2504 172.67C38.2504 162.102 38.2563 151.534 38.2682 140.966C36.6469 139.426 35.8362 138.648 34.2022 137.062H48.2246C46.5983 138.582 45.7851 139.342 44.1587 140.89C44.1587 145.801 44.1587 148.254 44.1435 153.162C51.4799 152.787 55.1545 152.655 62.5012 152.462C62.5012 147.767 62.5012 145.418 62.5164 140.725C60.8951 139.269 60.0845 138.536 58.4505 137.062H72.3738C70.75 138.508 69.9393 139.236 68.3079 140.695C68.2977 150.521 68.2875 160.347 68.2774 170.171C69.9038 171.565 70.7169 172.262 72.3433 173.666C66.7526 173.82 63.9573 173.962 58.3895 174.375C60.0159 172.779 60.8291 171.993 62.4555 170.44C62.4555 164.612 62.4555 161.701 62.4732 155.873C55.124 156.101 51.452 156.271 44.118 156.732C44.1511 162.823 44.1485 165.869 44.1409 171.96Z" fill="#5E3653"/>
<path d="M78.3075 137.062H92.3223C90.7011 138.513 89.8904 139.236 88.2564 140.68C88.2666 150.466 88.2725 160.251 88.2742 170.035C89.9031 171.522 90.7188 172.269 92.3401 173.785C86.7215 173.559 83.9084 173.531 78.2847 173.559C79.9111 172.105 80.7268 171.383 82.3506 169.948V140.67L78.3075 137.062Z" fill="#5E3653"/>
<path d="M126.913 177.185C117.455 175.69 107.938 174.654 98.3628 174.076C99.9867 172.708 100.8 172.026 102.429 170.658C102.415 160.691 102.401 150.718 102.386 140.738C100.762 139.251 99.9485 138.516 98.3196 137.051H126.913V145.71C124.88 143.655 123.864 142.649 121.831 140.677C116.411 140.606 113.699 140.581 108.276 140.533C108.276 145.527 108.276 148.023 108.294 153.017C112.317 153.177 114.324 153.271 118.342 153.486C119.849 152.135 120.606 151.459 122.116 150.07V160.966C120.606 159.385 119.851 158.609 118.339 157.076C114.324 156.823 112.314 156.696 108.294 156.501C108.294 162.446 108.294 165.418 108.314 171.36C113.737 171.821 116.446 172.12 121.849 172.799C123.882 171.109 124.878 170.265 126.898 168.522L126.913 177.185Z" fill="#5E3653"/>
<path d="M131.604 181.462L135.304 177.915V140.599L131.604 137.051H160V145.104L154.953 140.361H140.613V155.87H151.253L155.014 152.323V162.712L151.253 159.164H140.613V177.915L144.313 181.462H131.604Z" fill="#5E3653"/>
<path d="M40.075 184.972C41.7013 184.734 43.0431 185.276 44.0774 186.644C45.0507 187.931 45.5386 189.601 45.5437 191.572C45.5487 193.544 45.0685 195.274 44.1028 196.703C43.0685 198.242 41.7344 198.984 40.1004 199.004C38.4664 199.024 37.1119 198.31 36.0624 196.952C35.0779 195.654 34.5662 194.061 34.6113 192.434C34.5978 190.756 35.0929 189.113 36.0319 187.721C37.0636 186.168 38.413 185.225 40.075 184.972ZM43.5793 191.712C43.5793 190.169 43.3379 188.854 42.8423 187.845C42.2325 186.578 41.2897 186.051 40.075 186.216C38.8603 186.381 37.9226 187.161 37.3177 188.496C36.8067 189.687 36.5596 190.974 36.5935 192.269C36.5935 193.729 36.8366 194.946 37.3228 195.921C37.9454 197.167 38.8755 197.798 40.0953 197.773C41.3151 197.747 42.2426 197.061 42.8627 195.692C43.3455 194.613 43.5793 193.278 43.5768 191.714L43.5793 191.712Z" fill="#5E3653"/>
<path d="M47.3937 198.693L48.5728 197.251C48.5728 192.601 48.5525 190.275 48.5372 185.628C48.062 185.103 47.8231 184.845 47.3479 184.333C50.682 183.938 52.349 183.766 55.6882 183.469V186.745C55.0935 186.038 54.7988 185.691 54.2041 184.997C52.6209 185.134 51.8281 185.205 50.2474 185.362C50.2474 187.26 50.2474 188.207 50.2627 190.105C51.4367 190.027 52.0212 189.989 53.1978 189.918C53.6349 189.343 53.856 189.054 54.2956 188.471V192.626C53.8534 192.092 53.6298 191.821 53.1876 191.294C52.0136 191.354 51.4266 191.39 50.2525 191.456C50.2525 193.764 50.2525 194.917 50.2729 197.223C50.7481 197.793 50.9361 198.122 51.4113 198.703C49.8078 198.693 49.0302 198.67 47.3937 198.693Z" fill="#5E3653"/>
<path d="M62.8976 198.693C63.3677 198.074 63.6041 197.76 64.0767 197.134C64.0767 192.097 64.059 189.573 64.0463 184.533C63.571 183.935 63.3322 183.639 62.8544 183.051C64.9916 182.917 66.0564 182.861 68.191 182.767C69.7885 182.7 71.1024 183.445 72.1324 185.002C73.1489 186.56 73.6749 188.436 73.6775 190.604C73.68 192.773 73.1895 194.659 72.201 196.209C71.1489 197.849 69.8173 198.665 68.2215 198.67L62.8976 198.693ZM67.764 197.208C69.0194 197.208 70.0181 196.503 70.7525 195.105C71.3946 193.877 71.7139 192.386 71.7106 190.632C71.7106 188.904 71.3904 187.404 70.7373 186.191C70.013 184.853 68.9965 184.199 67.7386 184.252C66.9509 184.285 66.5595 184.303 65.7717 184.341L65.7972 197.225L67.764 197.208Z" fill="#5E3653"/>
<path d="M83.8906 198.693H75.5478L76.7295 197.099V184.176C76.2543 183.543 76.0179 183.231 75.5427 182.603C78.8895 182.544 80.5616 182.542 83.9084 182.582V186.061C83.3163 185.258 83.0164 184.858 82.4243 184.054H78.46V189.375H81.3977L82.5031 187.893V192.35L81.385 190.83H78.4499V197.165H82.4065C82.9986 196.369 83.2985 195.974 83.8906 195.178C83.8931 196.6 83.8906 197.294 83.8906 198.693Z" fill="#5E3653"/>
<path d="M89.3263 198.693C89.0545 198.684 88.7844 198.647 88.5207 198.581L85.8016 197.955L87.0976 195.077C87.6363 195.837 87.9032 196.227 88.4419 196.992C88.7158 197.138 89.021 197.215 89.3313 197.218C90.7324 197.218 91.4338 196.345 91.4355 194.6C91.4355 193.663 91.1381 192.937 90.5435 192.424C89.4457 191.471 88.8993 190.992 87.8015 190.037C86.6156 189.008 86.0227 187.77 86.0227 186.322C86.0227 185.055 86.3937 184.07 87.1078 183.34C87.4175 183.011 87.7952 182.753 88.2147 182.585C88.6341 182.416 89.0854 182.34 89.5372 182.362C89.7645 182.369 89.9904 182.401 90.2106 182.458C91.344 182.742 91.9107 182.886 93.0441 183.178C92.4799 184.151 92.2004 184.642 91.6362 185.628L90.3656 184.075C90.1061 183.966 89.835 183.887 89.5575 183.839C88.3352 183.801 87.7202 184.495 87.7202 185.907C87.7202 186.816 88.1954 187.68 89.1458 188.481C90.2462 189.421 90.7925 189.892 91.8903 190.827C92.7374 191.54 93.161 192.588 93.161 193.972C93.161 195.492 92.8001 196.638 92.0911 197.461C91.7532 197.861 91.329 198.179 90.8502 198.393C90.3714 198.606 89.8504 198.708 89.3263 198.693Z" fill="#5E3653"/>
<path d="M95.4201 182.889C97.0592 182.978 97.88 183.028 99.5191 183.142C99.0439 183.725 98.805 184.016 98.3298 184.607C98.3145 189.621 98.3069 192.127 98.2942 197.137C98.7643 197.76 99.0032 198.072 99.4759 198.688H95.4099C95.8826 198.067 96.0986 197.735 96.5764 197.119C96.5764 192.079 96.5941 189.555 96.6094 184.511C96.1291 183.862 95.8928 183.54 95.4201 182.889Z" fill="#5E3653"/>
<path d="M108.922 190.435L113.01 190.688C112.522 191.223 112.281 191.494 111.793 192.044C111.793 194.263 111.793 195.373 111.778 197.593C110.789 198.328 109.529 198.693 108.019 198.693C106.296 198.693 104.82 197.932 103.585 196.384C102.35 194.836 101.74 192.946 101.745 190.729C101.75 188.511 102.37 186.674 103.605 185.255C104.84 183.837 106.33 183.228 108.068 183.401C109.235 183.483 110.354 183.894 111.295 184.587V187.574C110.683 186.799 110.378 186.408 109.77 185.62C109.331 185.137 108.726 184.836 108.075 184.774C106.838 184.66 105.788 185.245 104.947 186.548C104.138 187.825 103.722 189.31 103.75 190.82C103.75 192.578 104.096 194.089 104.812 195.3C105.603 196.632 106.69 197.301 108.035 197.327C108.428 197.335 108.818 197.257 109.178 197.098C109.537 196.938 109.857 196.701 110.113 196.404V191.978C109.631 191.357 109.392 191.053 108.922 190.435Z" fill="#5E3653"/>
<path d="M118.474 198.708C116.893 198.69 116.103 198.708 114.522 198.69C115.031 198.082 115.285 197.755 115.793 197.17C115.793 192.738 115.811 190.521 115.824 186.089C115.315 185.438 115.061 185.108 114.568 184.445C115.793 184.594 116.405 184.673 117.618 184.837C119.938 188.965 121.094 190.946 123.424 194.686V187.06C122.916 186.434 122.662 186.119 122.154 185.481C123.739 185.719 124.532 185.846 126.115 186.107C125.607 186.558 125.353 186.786 124.845 187.255V200C121.795 195.393 120.286 192.872 117.257 187.584L117.231 197.213C117.719 197.803 117.971 198.107 118.474 198.708Z" fill="#5E3653"/>
<path d="M79.9466 114.211C105.57 114.211 126.342 90.533 126.342 61.3244C126.342 32.1159 105.57 8.43774 79.9466 8.43774C54.3234 8.43774 33.5517 32.1159 33.5517 61.3244C33.5517 90.533 54.3234 114.211 79.9466 114.211Z" fill="#42A7C6"/>
<path d="M79.9466 114.784C54.0872 114.784 33.0358 90.8008 33.0358 61.3194C33.0358 31.838 54.0872 7.85498 79.9466 7.85498C105.806 7.85498 126.845 31.8329 126.845 61.3194C126.845 90.8059 105.809 114.784 79.9466 114.784ZM79.9466 9.01042C54.6539 9.01042 34.0523 32.4714 34.0523 61.3194C34.0523 90.1674 54.6361 113.641 79.9466 113.641C105.257 113.641 125.841 90.1724 125.841 61.3194C125.841 32.4663 105.257 9.00535 79.9466 9.00535V9.01042Z" fill="white"/>
<path d="M122.527 61.3194C122.527 88.1251 103.468 109.855 79.9466 109.855C56.4251 109.855 37.3737 88.1302 37.3737 61.3194C37.3737 34.5087 56.4328 12.7859 79.9543 12.7859C103.476 12.7859 122.527 34.5188 122.527 61.3194Z" fill="#F9ECE1"/>
<path d="M79.9466 110.813C56.0084 110.813 36.5325 88.6115 36.5325 61.3244C36.5325 34.0373 56.0084 11.8381 79.9466 11.8381C103.885 11.8381 123.361 34.0373 123.361 61.3193C123.361 88.6014 103.885 110.813 79.9466 110.813ZM79.9466 13.7436C56.9232 13.7436 38.2046 35.0863 38.2046 61.3193C38.2046 87.5524 56.941 108.905 79.9466 108.905C102.952 108.905 121.689 87.5625 121.689 61.3193C121.689 35.0762 102.965 13.7436 79.9466 13.7436Z" fill="white"/>
<path d="M111.287 60.0297C111.636 60.99 105.189 64.9276 102.449 66.0856C95.7301 68.921 88.4851 70.1879 81.4917 70.1879C73.8477 70.1879 65.8708 68.7158 58.6538 65.2444C56.3667 64.1472 51.4545 60.6834 51.6934 60.0373C51.978 59.2391 58.3641 60.8532 60.7808 61.3828C67.6421 62.8828 74.6075 63.8432 81.4917 63.8432C88.3759 63.8432 95.3362 62.8854 102.2 61.3828C104.619 60.8507 111.069 59.381 111.287 60.0297Z" fill="#5E3653"/>
<path d="M101.666 26.9299C101.666 26.0075 92.6349 23.4889 81.4917 23.4889C70.3485 23.4889 61.3144 26.0075 61.3144 26.9299C61.3144 26.9628 66.3969 50.51 62.707 62.4039C62.297 63.7333 61.8337 65.0737 61.317 66.4251C68.2164 63.8913 75.3191 66.9319 81.9999 66.9496C88.6249 66.9496 94.8229 63.909 101.669 66.4251C96.5459 53.0793 101.666 26.9628 101.666 26.9299Z" fill="#5E3653"/>
<path d="M64.2927 55.6638L63.2356 62.1176C63.2356 62.1176 83.8194 66.9547 99.9867 62.077C99.1557 55.6765 99.1735 55.9096 99.1735 55.9096L64.2927 55.6638Z" fill="#42A7C6"/>
<path d="M97.8978 93.1675C97.9689 94.6245 96.8355 96.2411 95.8419 96.9961C94.5002 98.0097 92.7671 97.8653 91.2423 97.4801C87.8473 96.6287 83.7991 95.8863 81.2147 93.1244C80.6891 92.608 80.2391 92.0202 79.878 91.3786C79.5168 92.0195 79.0677 92.6071 78.5439 93.1244C75.9569 95.8863 71.9062 96.6287 68.5162 97.4801C66.9915 97.8653 65.2533 98.0122 63.909 96.9961C62.9205 96.236 61.7846 94.6245 61.8583 93.1675C61.8762 92.7414 62.0154 92.3292 62.2598 91.9791C63.0501 90.8541 65.2178 90.9149 66.3054 91.4926C67.4413 92.1033 67.7437 93.8111 66.9254 94.8322C65.848 96.1701 63.1365 94.4395 64.7883 93.2486C64.9916 93.0965 65.2279 93.4335 65.0195 93.5805C64.0717 94.2393 65.1441 94.9412 65.8429 94.9133C67.1719 94.8626 67.4413 93.0813 66.6993 92.1717C65.9572 91.262 64.5469 91.1581 63.5609 91.4673C60.7655 92.3212 62.8544 95.5214 64.4173 96.426C65.5532 97.0848 66.8238 96.4666 67.9191 96.0282C69.7926 95.2803 71.4389 94.0596 72.6965 92.4859C74.1222 90.7679 75.6316 89.0196 77.779 88.3912C78.1548 88.276 78.5566 88.2757 78.9326 88.3904C79.3085 88.5051 79.6414 88.7296 79.8882 89.0348C80.1346 88.7298 80.467 88.5055 80.8425 88.3907C81.218 88.276 81.6194 88.2762 81.9949 88.3912C84.1346 89.0221 85.639 90.7679 87.0773 92.4859C88.3332 94.0593 89.9766 95.2815 91.8471 96.0333C92.9449 96.4716 94.213 97.0899 95.3566 96.4311C96.9143 95.5367 98.9905 92.3262 96.2104 91.4723C95.2244 91.1683 93.7836 91.2975 93.0669 92.1768C92.3503 93.056 92.5968 94.8677 93.9284 94.9184C94.6272 94.9463 95.7072 94.2444 94.7467 93.5856C94.5383 93.4386 94.7746 93.1016 94.983 93.2536C96.6322 94.4446 93.9233 96.1752 92.8458 94.8373C92.025 93.8238 92.3376 92.1083 93.4659 91.4977C94.551 90.9174 96.7237 90.8591 97.5115 91.9842C97.7466 92.3359 97.8802 92.7452 97.8978 93.1675Z" fill="#5E3653"/>
<path d="M71.5988 81.005C71.0239 80.7912 70.536 80.3939 70.2113 79.8749C69.8759 79.3439 69.6995 78.7286 69.703 78.1012C69.7068 77.4704 69.8939 76.8543 70.2417 76.3274C70.5706 75.8132 71.064 75.4248 71.642 75.2252C71.2938 75.6484 71.012 76.1217 70.8059 76.629C70.6214 77.1027 70.5241 77.6057 70.5187 78.1138C70.5131 78.6183 70.5992 79.1197 70.7729 79.5936C70.9754 80.1028 71.2539 80.5786 71.5988 81.005Z" fill="#42A7C6"/>
<path d="M65.9166 79.5074H67.4743C67.8111 80.7652 68.5951 81.858 69.6801 82.582C70.7652 83.306 72.0773 83.6119 73.3718 83.4426C74.6663 83.2733 75.8549 82.6403 76.716 81.6618C77.5771 80.6832 78.0519 79.4258 78.0519 78.124C78.0519 76.8221 77.5771 75.5647 76.716 74.5862C75.8549 73.6076 74.6663 72.9747 73.3718 72.8053C72.0773 72.636 70.7652 72.9419 69.6801 73.6659C68.5951 74.3899 67.8111 75.4827 67.4743 76.7405H65.9166V79.5074ZM68.5213 78.124C68.5208 77.3091 68.7627 76.5124 69.2163 75.8346C69.6699 75.1567 70.3149 74.6283 71.0697 74.316C71.8246 74.0037 72.6553 73.9216 73.457 74.08C74.2586 74.2385 74.9951 74.6305 75.5733 75.2063C76.1516 75.7822 76.5455 76.516 76.7055 77.3152C76.8654 78.1143 76.7841 78.9427 76.4718 79.6958C76.1595 80.4488 75.6303 81.0926 74.9511 81.5457C74.2719 81.9988 73.4731 82.241 72.6559 82.2415C72.1133 82.2418 71.5759 82.1356 71.0744 81.9288C70.573 81.7221 70.1173 81.4189 69.7334 81.0365C69.3494 80.6542 69.0448 80.2002 68.8368 79.7004C68.6289 79.2007 68.5217 78.665 68.5213 78.124Z" fill="#5E3653"/>
<path d="M88.2234 81.005C88.798 80.7919 89.2852 80.3944 89.6083 79.8749C89.9444 79.343 90.1208 78.7264 90.1167 78.0978C90.1127 77.4692 89.9283 76.8549 89.5855 76.3274C89.2536 75.8128 88.7577 75.4246 88.1776 75.2252C88.5284 75.6465 88.8106 76.1202 89.0137 76.629C89.3877 77.5804 89.3967 78.6359 89.0391 79.5936C88.8418 80.1032 88.5667 80.5793 88.2234 81.005Z" fill="#42A7C6"/>
<path d="M81.789 78.1239C81.7848 79.4254 82.2564 80.6838 83.1156 81.6636C83.9747 82.6433 85.1625 83.2774 86.4566 83.447C87.7507 83.6166 89.0625 83.3102 90.1464 82.585C91.2303 81.8599 92.012 80.7657 92.3452 79.5074H93.9004V76.7404H92.3452C92.012 75.482 91.2303 74.3879 90.1464 73.6628C89.0625 72.9376 87.7507 72.6312 86.4566 72.8008C85.1625 72.9704 83.9747 73.6044 83.1156 74.5842C82.2564 75.564 81.7848 76.8224 81.789 78.1239ZM83.0368 78.1239C83.0362 77.3087 83.2783 76.5117 83.7322 75.8337C84.1862 75.1557 84.8316 74.6272 85.5869 74.3152C86.3422 74.0031 87.1734 73.9214 87.9752 74.0805C88.777 74.2396 89.5135 74.6323 90.0914 75.2089C90.6694 75.7855 91.0628 76.5201 91.2218 77.3197C91.3809 78.1194 91.2985 78.9481 90.985 79.701C90.6716 80.4539 90.1412 81.0971 89.461 81.5493C88.7807 82.0016 87.9812 82.2424 87.1637 82.2414C86.0691 82.2401 85.0198 81.8057 84.2461 81.0338C83.4724 80.2618 83.0374 79.2153 83.0368 78.1239Z" fill="#5E3653"/>
<path d="M131.01 65.1582L133.686 61.3194L131.015 57.4983L133.226 53.3149L130.128 49.917L131.843 45.4397L128.4 42.5384L129.584 37.8432L125.836 35.4791L126.474 30.6597L122.487 28.886L122.568 24.0007L118.41 22.8225L117.935 17.9575L113.679 17.4101L112.642 12.6693L108.357 12.758L106.789 8.21224L102.553 8.93945L100.477 4.66483L96.3604 6.01538L93.8191 2.08537L89.8752 4.03897L86.9096 0.521975L83.2299 3.04063L79.8755 0L76.5262 3.04063L72.8541 0.521975L69.8834 4.03897L65.9522 2.08537L63.4109 6.01538L59.2891 4.66483L57.2155 8.93945L52.9767 8.21224L51.4113 12.758L47.1268 12.6693L46.0951 17.4101L41.8335 17.9575L41.3532 22.8047L37.1958 23.983L37.2745 28.8683L33.2899 30.6597L33.9227 35.474L30.1718 37.8381L31.3586 42.5334L27.9102 45.4346L29.6229 49.917L26.5379 53.3073L28.7488 57.4907L26.0754 61.3194L28.7462 65.1632L26.5354 69.3466L29.6204 72.7217L27.9076 77.2016L31.3561 80.0978L30.1693 84.7905L33.9201 87.1647L33.2899 91.9968L37.2796 93.7705L37.2008 98.6558L41.3507 99.834L41.8309 104.674L46.0926 105.221L47.1243 109.969L51.4088 109.878L52.9742 114.424L57.2129 113.699L59.2866 117.971L63.4084 116.621L65.9496 120.553L69.8834 118.623L72.8541 122.132L76.5262 119.613L79.8755 122.654L83.2299 119.613L86.9096 122.132L89.8828 118.615L93.8115 120.569L96.3527 116.636L100.469 117.987L102.546 113.715L106.782 114.439L108.35 109.893L112.634 109.985L113.666 105.241L117.938 104.679L118.421 99.834L122.581 98.6558L122.487 93.7705L126.479 91.9968L125.846 87.1647L129.602 84.788L128.408 80.1079L131.856 77.2067L130.128 72.7217L133.216 69.3314L131.01 65.1582ZM79.8755 114.568C54.0186 114.568 32.9799 90.5854 32.9799 61.104C32.9799 31.6226 54.0186 7.63958 79.8755 7.63958C105.732 7.63958 126.774 31.6302 126.774 61.104C126.774 90.5778 105.732 114.568 79.8755 114.568Z" fill="#5E3653"/>
<path d="M79.8755 11.6228C55.9398 11.6228 36.4639 33.8219 36.4639 61.1065C36.4639 88.3911 55.9398 110.598 79.8755 110.598C103.811 110.598 123.292 88.3962 123.292 61.104C123.292 33.8118 103.816 11.6228 79.8755 11.6228ZM79.8755 108.692C56.8597 108.692 38.136 87.3472 38.136 61.104C38.136 34.8608 56.8622 13.5257 79.878 13.5257C102.894 13.5257 121.623 34.871 121.62 61.104C121.617 87.337 102.896 108.703 79.8755 108.703V108.692Z" fill="white"/>
</g>
<defs>
<clipPath id="clip0_6_314">
<rect width="160" height="200" fill="white"/>
</clipPath>
</defs>
</svg>
